# xmcd
#
# Track frame offsets:
# 150
# 11815
# 21212
# 30960
# 40282
# 55190
# 64985
# 74962
# 85120
# 92965
# 101332
# 111567
# 121002
# 123650
# 135535
# 159080
# 170940
# 183715
# 193170
# 202652
# 214372
#
# Disc length: 3145 seconds
#
# Revision: 0
# Processed by: cddbd v1.5.1PL0 Copyright (c) Steve Scherf et al.
# Submitted via: Audion 3.0.2 (http://www.panic.com/audion/)
#
DISCID=360c4715
DTITLE=Maroc - chants et danses de l'atlas
DYEAR=1900
DGENRE=
TTITLE0=astara n ighariwn
TTITLE1=ahellil
TTITLE2=ddikr 
TTITLE3=ddikr
TTITLE4=tagzzumt wa tamghra
TTITLE5=chant de mariage ayt boudmez
TTITLE6=chant de mariage ayt haddidou
TTITLE7=izwirrign
TTITLE8=tizrrarin
TTITLE9=ahidus hayfa
TTITLE10=ahidus amssad
TTITLE11=ahidus ihit
TTITLE12=tamawayt
TTITLE13=taskiwin
TTITLE14=l'msaq wa ahwash
TTITLE15=bu ganga
TTITLE16=amkh'llf
TTITLE17=tamssust
TTITLE18=tamdyazt
TTITLE19=shikhat
TTITLE20=rays hajj omar wahroush
EXTD=
EXTT0=
EXTT1=
EXTT2=
EXTT3=
EXTT4=
EXTT5=
EXTT6=
EXTT7=
EXTT8=
EXTT9=
EXTT10=
EXTT11=
EXTT12=
EXTT13=
EXTT14=
EXTT15=
EXTT16=
EXTT17=
EXTT18=
EXTT19=
EXTT20=
PLAYORDER=
